# xmcd
#
# Track frame offsets:
#	150
#	16289
#	30393
#	47052
#	64419
#	84261
#	99700
#	116200
#	131942
#	148214
#	164184
#	184124
#	202306
#	218738
#
# Disc length: 3161 seconds
# Revision: 0
# Processed by: cddbd v1.5.2PL0 Copyright (c) Steve Scherf et al.
# Submitted via: dBpowerAMP V12.0
#
DISCID=dc0c570e
DTITLE=Keith Hall And Pat Dow - Blues Hall
DYEAR=2013
DGENRE=Blues
TTITLE0=Down by The Waterfront
TTITLE1=Crossfire Dream
TTITLE2=The Stealer
TTITLE3=If Your Love Comes my Way
TTITLE4=Yo Moma
TTITLE5=Summerrain
TTITLE6=Going Home
TTITLE7=Goodbye John Lee
TTITLE8=My Friend The Weekend
TTITLE9=Waiting on The Weather
TTITLE10=This is All There is
TTITLE11=Gunslinger
TTITLE12=Empty Streets 
TTITLE13=Blues Falling
EXTD=
EXTT0=
EXTT1=
EXTT2=
EXTT3=
EXTT4=
EXTT5=
EXTT6=
EXTT7=
EXTT8=
EXTT9=
EXTT10=
EXTT11=
EXTT12=
EXTT13=
PLAYORDER=
